<?xml version="1.0" encoding="UTF-8" standalone="no"?>
<!-- Created with Inkscape (http://www.inkscape.org/) -->

<svg
   id="svg2"
   version="1.1"
   inkscape:version="1.1.1 (eb90963e84, 2021-10-02)"
   xml:space="preserve"
   width="44.66"
   height="47.940125"
   viewBox="0 0 44.659999 47.940122"
   sodipodi:docname="Assistance_publique_-_Hôpitaux_de_Paris.svg"
   xmlns:inkscape="http://www.inkscape.org/namespaces/inkscape"
   xmlns:sodipodi="http://sodipodi.sourceforge.net/DTD/sodipodi-0.dtd"
   xmlns="http://www.w3.org/2000/svg"
   xmlns:svg="http://www.w3.org/2000/svg"
   xmlns:rdf="http://www.w3.org/1999/02/22-rdf-syntax-ns#"
   xmlns:cc="http://creativecommons.org/ns#"
   xmlns:dc="http://purl.org/dc/elements/1.1/"><metadata
     id="metadata8"><rdf:RDF><cc:Work
         rdf:about=""><dc:format>image/svg+xml</dc:format><dc:type
           rdf:resource="http://purl.org/dc/dcmitype/StillImage" /></cc:Work></rdf:RDF></metadata><defs
     id="defs6"><clipPath
       clipPathUnits="userSpaceOnUse"
       id="clipPath50"><path
         d="M 28.347,17.008 H 566.929 V 119.675 H 28.347 Z"
         id="path52"
         inkscape:connector-curvature="0" /></clipPath></defs><sodipodi:namedview
     pagecolor="#ffffff"
     bordercolor="#666666"
     borderopacity="1"
     objecttolerance="10"
     gridtolerance="10"
     guidetolerance="10"
     inkscape:pageopacity="0"
     inkscape:pageshadow="2"
     inkscape:window-width="1920"
     inkscape:window-height="1016"
     id="namedview4"
     showgrid="false"
     fit-margin-left="0"
     fit-margin-top="0"
     fit-margin-bottom="0"
     fit-margin-right="0"
     inkscape:zoom="3.588117"
     inkscape:cx="12.12335"
     inkscape:cy="39.714424"
     inkscape:window-x="0"
     inkscape:window-y="1227"
     inkscape:window-maximized="1"
     inkscape:current-layer="g2365"
     inkscape:pagecheckerboard="0" /><g
     id="g10"
     inkscape:groupmode="layer"
     inkscape:label="A"
     transform="matrix(1.25,0,0,-1.25,-243.67248,90.548316)"
     style="display:inline"><g
       id="g3546"><g
         id="g2365"
         transform="translate(-84.793017,3.7858526)"><g
           transform="translate(289.823,60.5297)"
           id="g186"><path
             inkscape:connector-curvature="0"
             id="path188"
             style="fill:#006bb6;fill-opacity:1;fill-rule:nonzero;stroke:none"
             d="M 0,0 C -0.552,0 -0.999,0.383 -0.999,0.857 -0.999,1.33 -0.552,1.713 0,1.713 0.552,1.713 1,1.33 1,0.857 1,0.383 0.552,0 0,0 m 8.09,1.474 c 3.647,-0.178 6.558,-3.612 6.558,-7.834 0,-4.335 -3.067,-7.85 -6.851,-7.85 -3.784,0 -6.851,3.515 -6.851,7.85 0,4.239 2.935,7.685 6.602,7.836 -8.068,5.628 -17.036,0.583 -17.64,-9.299 0.302,-13.928 14.432,-16.351 17.864,-22.406 3.835,6.257 17.157,8.983 17.864,22.204 C 25.132,3.672 14.048,6.201 8.09,1.474" /></g><g
           transform="translate(297.8973,61.9919)"
           id="g190"><path
             inkscape:connector-curvature="0"
             id="path192"
             style="fill:#006bb6;fill-opacity:1;fill-rule:nonzero;stroke:none"
             d="M 0,0 C 0.005,0.004 0.011,0.007 0.016,0.011 -0.082,0.016 -0.178,0.029 -0.278,0.029 -0.361,0.029 -0.443,0.017 -0.526,0.014 -0.519,0.009 -0.512,0.005 -0.505,0 Z" /></g><g
           transform="translate(293.1541,68.6528)"
           id="g194"><path
             inkscape:connector-curvature="0"
             id="path196"
             style="fill:#006bb6;fill-opacity:1;fill-rule:nonzero;stroke:none"
             d="m 0,0 c -3.432,-5.349 -2.624,-9.487 2.22,-15.341 -1.211,-1.514 -1.514,-2.523 -1.413,-3.936 1.615,0.202 2.221,1.312 2.422,3.028 1.717,-1.514 4.34,-2.12 6.056,-2.019 -0.368,3.043 -2.693,5.335 -6.459,3.634 -2.927,3.936 -5.955,7.973 -2.321,14.23 z" /></g></g></g></g></svg>
