<?xml version="1.0" encoding="UTF-8" standalone="no"?>
<!-- Created with Inkscape (http://www.inkscape.org/) -->

<svg
   xmlns:dc="http://purl.org/dc/elements/1.1/"
   xmlns:cc="http://creativecommons.org/ns#"
   xmlns:rdf="http://www.w3.org/1999/02/22-rdf-syntax-ns#"
   xmlns:svg="http://www.w3.org/2000/svg"
   xmlns="http://www.w3.org/2000/svg"
   xmlns:sodipodi="http://sodipodi.sourceforge.net/DTD/sodipodi-0.dtd"
   xmlns:inkscape="http://www.inkscape.org/namespaces/inkscape"
   id="svg2"
   version="1.1"
   inkscape:version="0.91 r13725"
   xml:space="preserve"
   width="256.64987"
   height="57.940125"
   viewBox="0 0 256.64987 57.940122"
   sodipodi:docname="APHP.svg"><metadata
     id="metadata8"><rdf:RDF><cc:Work
         rdf:about=""><dc:format>image/svg+xml</dc:format><dc:type
           rdf:resource="http://purl.org/dc/dcmitype/StillImage" /><dc:title></dc:title></cc:Work></rdf:RDF></metadata><defs
     id="defs6"><clipPath
       clipPathUnits="userSpaceOnUse"
       id="clipPath50"><path
         d="m 28.347,17.008 538.582,0 0,102.667 -538.582,0 0,-102.667 z"
         id="path52"
         inkscape:connector-curvature="0" /></clipPath></defs><sodipodi:namedview
     pagecolor="#ffffff"
     bordercolor="#666666"
     borderopacity="1"
     objecttolerance="10"
     gridtolerance="10"
     guidetolerance="10"
     inkscape:pageopacity="0"
     inkscape:pageshadow="2"
     inkscape:window-width="1920"
     inkscape:window-height="1017"
     id="namedview4"
     showgrid="false"
     fit-margin-left="5"
     fit-margin-top="5"
     fit-margin-bottom="5"
     fit-margin-right="5"
     inkscape:zoom="1.7940585"
     inkscape:cx="49.83743"
     inkscape:cy="78.022818"
     inkscape:window-x="-8"
     inkscape:window-y="-8"
     inkscape:window-maximized="1"
     inkscape:current-layer="g10" /><g
     id="g10"
     inkscape:groupmode="layer"
     inkscape:label="A"
     transform="matrix(1.25,0,0,-1.25,-243.47513,90.816)"><g
       id="g3546"><g
         transform="translate(303.651,32.0166)"
         id="g38"><path
           inkscape:connector-curvature="0"
           id="path40"
           style="fill:#006bb6;fill-opacity:1;fill-rule:nonzero;stroke:none"
           d="m 0,0 -0.607,-0.404 93.056,0 0,0.404 L 0,0 Z" /></g><g
         transform="translate(198.8874,31.9158)"
         id="g42"><path
           inkscape:connector-curvature="0"
           id="path44"
           style="fill:#006bb6;fill-opacity:1;fill-rule:nonzero;stroke:none"
           d="m 0,0 0,-0.404 93.056,0 L 92.45,0 0,0 Z" /></g><g
         id="g46"><g
           clip-path="url(#clipPath50)"
           id="g48"><g
             transform="translate(323.6366,55.7322)"
             id="g54"><path
               inkscape:connector-curvature="0"
               id="path56"
               style="fill:#006bb6;fill-opacity:1;fill-rule:nonzero;stroke:none"
               d="m 0,0 0,-2.631 c 0,-0.654 -0.087,-1.715 0.639,-1.991 l 0,-0.043 -2.761,0 0,0.043 c 0.727,0.276 0.64,1.337 0.64,1.991 l 0,5.494 c 0,0.654 0.101,1.715 -0.64,1.991 l 0,0.044 2.761,0 0,-0.044 C -0.087,4.578 0,3.517 0,2.848 l 0,-1.802 5.247,0 0,1.802 c 0,0.669 0.102,1.73 -0.64,2.006 l 0,0.044 2.776,0 0,-0.044 C 6.642,4.578 6.729,3.517 6.729,2.863 l 0,-5.494 c 0,-0.654 -0.087,-1.715 0.654,-1.991 l 0,-0.043 -2.776,0 0,0.043 c 0.742,0.276 0.64,1.337 0.64,1.991 L 5.247,0 0,0 Z" /></g><g
             transform="translate(340.248,61.1241)"
             id="g58"><path
               inkscape:connector-curvature="0"
               id="path60"
               style="fill:#006bb6;fill-opacity:1;fill-rule:nonzero;stroke:none"
               d="M 0,0 C -0.857,0 -1.628,0.421 -2.34,0.872 -3.052,0.393 -3.866,0.015 -4.738,0 L -2.34,2.224 0,0 Z m -6.031,-5.116 c 0,-2.035 1.438,-4.128 3.72,-4.128 2.21,0 3.619,1.614 3.619,3.779 0,2.122 -1.351,4.171 -3.648,4.171 -2.253,0 -3.691,-1.627 -3.691,-3.822 m 8.996,-0.058 c 0,-2.965 -2.456,-5.116 -5.349,-5.116 -2.877,0 -5.304,2.064 -5.304,5.043 0,2.762 2.398,5.073 5.449,5 3.053,0.014 5.204,-2.311 5.204,-4.927" /></g><g
             transform="translate(348.4706,60.6298)"
             id="g62"><path
               inkscape:connector-curvature="0"
               id="path64"
               style="fill:#006bb6;fill-opacity:1;fill-rule:nonzero;stroke:none"
               d="m 0,0 c 1.889,0 3.328,-0.915 3.328,-2.543 0,-1.672 -1.555,-2.733 -3.197,-2.733 -0.364,0 -0.727,0.044 -1.062,0.203 1.251,0.073 2.602,0.844 2.602,2.239 0,1.279 -0.901,1.788 -2.064,1.788 -0.348,0 -0.683,-0.029 -1.017,-0.087 l 0,-6.555 c 0,-0.815 -0.014,-1.396 0.756,-1.832 l 0,-0.043 -2.892,0 0,0.043 c 0.741,0.262 0.654,1.337 0.654,1.991 l 0,5.48 c 0,0.654 0.087,1.715 -0.64,2.006 L -3.532,0 0,0 Z" /></g><g
             transform="translate(353.7426,58.5807)"
             id="g66"><path
               inkscape:connector-curvature="0"
               id="path68"
               style="fill:#006bb6;fill-opacity:1;fill-rule:nonzero;stroke:none"
               d="m 0,0 c 0,0.669 0.101,1.73 -0.639,2.006 l 0,0.043 2.76,0 0,-0.043 C 1.395,1.73 1.483,0.654 1.483,0 l 0,-5.48 c 0,-0.654 -0.088,-1.715 0.638,-1.991 l 0,-0.043 -2.76,0 0,0.043 C 0.087,-7.209 0,-6.134 0,-5.48 L 0,0 Z" /></g><g
             transform="translate(361.064,52.9562)"
             id="g70"><path
               inkscape:connector-curvature="0"
               id="path72"
               style="fill:#006bb6;fill-opacity:1;fill-rule:nonzero;stroke:none"
               d="m 0,0 c 0,-0.829 -0.015,-1.396 0.756,-1.846 l 0,-0.043 -2.878,0 0,0.043 c 0.727,0.276 0.64,1.337 0.64,1.991 l 0,6.482 -1.279,0 c -0.626,0 -1.28,-0.159 -1.73,-0.581 l -0.043,0 0.508,1.73 0.043,0 C -3.808,7.703 -3.619,7.703 -3.43,7.674 l 0.363,0 5.422,0 c 0.246,0 0.479,0.014 0.668,0.102 l 0.044,0 -0.466,-1.73 -0.043,0 C 2.369,6.555 1.787,6.627 1.308,6.627 L 0,6.627 0,0 Z" /></g><g
             transform="translate(369.5077,59.3948)"
             id="g74"><path
               inkscape:connector-curvature="0"
               id="path76"
               style="fill:#006bb6;fill-opacity:1;fill-rule:nonzero;stroke:none"
               d="m 0,0 -1.439,-3.663 2.863,0 L 0,0 Z m -1.817,-4.738 -0.756,-2.05 c -0.305,-0.814 -0.407,-1.235 0.29,-1.497 l 0,-0.043 -2.674,0 0,0.043 c 0.843,0.422 1.09,1.236 1.41,2.064 l 2.428,6.061 c 0.203,0.523 0.479,1.133 -0.219,1.352 l 0,0.043 2.297,0 3.023,-7.456 c 0.334,-0.828 0.596,-1.642 1.424,-2.064 l 0,-0.043 -2.979,0 0,0.043 c 0.712,0.32 0.596,0.48 0.203,1.497 l -0.784,2.05 -3.663,0 z" /></g><g
             transform="translate(382.8777,52.0257)"
             id="g78"><path
               inkscape:connector-curvature="0"
               id="path80"
               style="fill:#006bb6;fill-opacity:1;fill-rule:nonzero;stroke:none"
               d="m 0,0 c -0.64,-0.843 -1.831,-1.192 -2.849,-1.192 -0.959,0 -1.976,0.305 -2.63,1.018 -0.771,0.843 -0.742,1.817 -0.742,2.863 l 0,3.881 c 0,0.654 0.102,1.715 -0.639,1.991 l 0,0.043 2.761,0 0,-0.043 C -4.825,8.285 -4.738,7.224 -4.738,6.57 l 0,-3.881 c 0,-1.933 0.813,-2.834 2.311,-2.834 0.814,0 1.642,0.334 2.122,1.017 C 0.015,1.308 0,1.672 0,2.194 L 0,6.57 c 0,0.654 0.087,1.715 -0.64,1.991 l 0,0.043 2.762,0 0.015,-0.043 C 1.395,8.285 1.482,7.224 1.482,6.555 l 0,-5.48 c 0,-0.654 -0.087,-1.715 0.655,-1.991 l 0,-0.043 L 0,-0.959 0,0 Z" /></g><g
             transform="translate(388.5878,52.5491)"
             id="g82"><path
               inkscape:connector-curvature="0"
               id="path84"
               style="fill:#006bb6;fill-opacity:1;fill-rule:nonzero;stroke:none"
               d="m 0,0 c -0.349,-0.465 -0.785,-1.09 0.102,-1.439 l 0,-0.043 -2.82,0 0,0.043 4.027,5.058 -2.108,3.052 c -0.378,0.552 -0.785,1.134 -1.396,1.41 l 1.686,0 c 0.451,0 0.582,-0.116 0.728,-0.349 L 2.325,4.695 3.765,6.642 C 4.128,7.136 4.622,7.921 3.633,8.037 l 0,0.044 2.66,0 L 2.995,3.779 5.319,0.32 c 0.466,-0.698 0.916,-1.497 1.745,-1.802 l -1.671,0 c -0.596,0 -0.844,0.377 -0.945,0.508 L 2.021,2.674 0,0 Z" /></g><g
             transform="translate(323.8819,38.085)"
             id="g86"><path
               inkscape:connector-curvature="0"
               id="path88"
               style="fill:#006bb6;fill-opacity:1;fill-rule:nonzero;stroke:none"
               d="m 0,0 c 0.349,-0.073 0.698,-0.102 1.061,-0.102 2.166,0 4.099,1.134 4.099,3.648 C 5.16,6.09 3.735,7.369 1.308,7.369 0.872,7.369 0.437,7.31 0,7.209 L 0,0 Z m -1.482,6.424 c 0,0.669 0.101,1.73 -0.64,1.947 l 0,0.044 3.561,0 c 3.314,0 5.378,-1.802 5.378,-4.694 0,-2.864 -2.195,-4.869 -5.451,-4.869 l -3.488,0 0,0.043 c 0.727,0.494 0.64,1.192 0.64,2.05 l 0,5.479 z" /></g><g
             transform="translate(335.6098,38.1574)"
             id="g90"><path
               inkscape:connector-curvature="0"
               id="path92"
               style="fill:#006bb6;fill-opacity:1;fill-rule:nonzero;stroke:none"
               d="m 0,0 1.845,-0.174 c 0.96,-0.088 1.963,0.218 2.689,0.858 l 0.044,0 -0.654,-1.905 -6.061,0 0,0.044 c 0.742,0.261 0.654,1.337 0.654,1.991 l 0,5.479 c 0,0.669 0.088,1.73 -0.654,2.006 l 0,0.044 4.651,0 c 0.247,0 0.495,-0.029 0.683,0.072 l 0.044,0 0,-1.7 -0.044,0 C 2.747,7.238 2.151,7.296 1.482,7.296 0.973,7.296 0.465,7.282 0,7.195 l 0,-2.704 1.729,0 c 0.233,0 0.465,0 0.64,0.088 l 0.043,0 0,-1.541 -0.043,0 C 2.136,3.459 1.526,3.445 1.075,3.445 L 0,3.445 0,0 Z" /></g><g
             transform="translate(355.4993,46.5002)"
             id="g94"><path
               inkscape:connector-curvature="0"
               id="path96"
               style="fill:#006bb6;fill-opacity:1;fill-rule:nonzero;stroke:none"
               d="m 0,0 c 1.889,0 3.328,-0.916 3.328,-2.543 0,-1.672 -1.555,-2.733 -3.197,-2.733 -0.363,0 -0.727,0.044 -1.061,0.203 1.25,0.073 2.601,0.844 2.601,2.239 0,1.279 -0.901,1.787 -2.064,1.787 -0.348,0 -0.682,-0.028 -1.016,-0.086 l 0,-6.556 c 0,-0.814 -0.016,-1.395 0.755,-1.831 l 0,-0.044 -2.893,0 0,0.044 c 0.742,0.262 0.654,1.337 0.654,1.991 l 0,5.479 c 0,0.655 0.088,1.716 -0.638,2.006 L -3.531,0 0,0 Z" /></g><g
             transform="translate(365.6401,45.2648)"
             id="g98"><path
               inkscape:connector-curvature="0"
               id="path100"
               style="fill:#006bb6;fill-opacity:1;fill-rule:nonzero;stroke:none"
               d="m 0,0 -1.438,-3.663 2.863,0 L 0,0 Z m -1.816,-4.738 -0.756,-2.05 c -0.305,-0.813 -0.407,-1.235 0.291,-1.497 l 0,-0.043 -2.675,0 0,0.043 c 0.843,0.422 1.09,1.236 1.41,2.064 l 2.427,6.061 c 0.204,0.523 0.48,1.134 -0.218,1.352 l 0,0.043 2.297,0 3.023,-7.456 c 0.334,-0.828 0.596,-1.642 1.424,-2.064 l 0,-0.043 -2.98,0 0,0.043 c 0.713,0.32 0.597,0.48 0.204,1.497 l -0.785,2.05 -3.662,0 z" /></g><g
             transform="translate(376.8457,46.5002)"
             id="g102"><path
               inkscape:connector-curvature="0"
               id="path104"
               style="fill:#006bb6;fill-opacity:1;fill-rule:nonzero;stroke:none"
               d="m 0,0 c 1.947,0 3.008,-1.018 3.008,-2.34 0,-1.279 -1.119,-2.282 -2.311,-2.558 L 2.79,-7.529 C 3.401,-8.285 4.316,-9.04 5.145,-9.564 l -1.338,0 c -0.77,0 -1.249,0.189 -1.685,0.727 l -1.774,2.195 -1.337,2.049 c 1.163,0.174 2.515,0.713 2.515,2.079 0,1.046 -0.901,1.657 -1.875,1.613 -0.335,-0.015 -0.655,-0.058 -0.989,-0.117 l 0,-6.511 c 0,-0.668 -0.087,-1.729 0.654,-1.991 l 0,-0.044 -2.776,0 0,0.044 c 0.742,0.262 0.64,1.337 0.64,1.991 l 0,5.479 c 0,0.669 0.102,1.73 -0.64,2.006 L -3.46,0 0,0 Z" /></g><g
             transform="translate(383.5858,44.4506)"
             id="g106"><path
               inkscape:connector-curvature="0"
               id="path108"
               style="fill:#006bb6;fill-opacity:1;fill-rule:nonzero;stroke:none"
               d="m 0,0 c 0,0.669 0.101,1.73 -0.64,2.006 l 0,0.044 2.762,0 0,-0.044 C 1.395,1.73 1.482,0.654 1.482,0 l 0,-5.479 c 0,-0.654 -0.087,-1.715 0.64,-1.992 l 0,-0.043 -2.762,0 0,0.043 C 0.087,-7.209 0,-6.133 0,-5.479 L 0,0 Z" /></g><g
             transform="translate(394.1484,44.7705)"
             id="g110"><path
               inkscape:connector-curvature="0"
               id="path112"
               style="fill:#006bb6;fill-opacity:1;fill-rule:nonzero;stroke:none"
               d="m 0,0 c -0.567,0.581 -1.469,0.916 -2.282,0.916 -0.828,0 -1.875,-0.32 -1.875,-1.323 0,-1.991 5,-1.962 5,-4.651 0,-1.555 -1.628,-3.008 -3.895,-3.008 -0.887,0 -1.773,0.131 -2.602,0.436 l -0.421,1.817 c 0.857,-0.742 2.049,-1.207 3.182,-1.207 0.829,0 2.078,0.494 2.078,1.512 0,2.267 -4.999,1.86 -4.999,4.941 0,1.832 1.875,2.529 3.649,2.529 0.726,0 1.467,-0.102 2.165,-0.319 L 0,0 Z" /></g><g
             transform="translate(203.4881,58.8902)"
             id="g114"><path
               inkscape:connector-curvature="0"
               id="path116"
               style="fill:#006bb6;fill-opacity:1;fill-rule:nonzero;stroke:none"
               d="m 0,0 -1.367,-3.663 2.72,0 L 0,0 Z m -1.726,-4.738 -0.717,-2.05 c -0.291,-0.814 -0.387,-1.235 0.276,-1.497 l 0,-0.043 -2.541,0 0,0.043 c 0.801,0.422 1.036,1.236 1.34,2.064 l 2.305,6.061 c 0.193,0.523 0.456,1.133 -0.207,1.352 l 0,0.043 2.181,0 2.872,-7.456 c 0.318,-0.828 0.566,-1.642 1.353,-2.064 l 0,-0.043 -2.83,0 0,0.043 c 0.677,0.32 0.566,0.48 0.193,1.497 l -0.746,2.05 -3.479,0 z" /></g><g
             transform="translate(214.4922,58.3959)"
             id="g118"><path
               inkscape:connector-curvature="0"
               id="path120"
               style="fill:#006bb6;fill-opacity:1;fill-rule:nonzero;stroke:none"
               d="m 0,0 c -0.539,0.581 -1.395,0.916 -2.168,0.916 -0.787,0 -1.781,-0.32 -1.781,-1.323 0,-1.991 4.75,-1.962 4.75,-4.651 0,-1.555 -1.547,-3.008 -3.7,-3.008 -0.843,0 -1.685,0.13 -2.472,0.435 l -0.4,1.817 c 0.814,-0.741 1.946,-1.206 3.024,-1.206 0.787,0 1.974,0.494 1.974,1.511 0,2.268 -4.749,1.861 -4.749,4.942 0,1.832 1.78,2.529 3.464,2.529 0.691,0 1.395,-0.102 2.058,-0.32 L 0,0 Z" /></g><g
             transform="translate(221.5996,58.3959)"
             id="g122"><path
               inkscape:connector-curvature="0"
               id="path124"
               style="fill:#006bb6;fill-opacity:1;fill-rule:nonzero;stroke:none"
               d="m 0,0 c -0.539,0.581 -1.395,0.916 -2.167,0.916 -0.787,0 -1.781,-0.32 -1.781,-1.323 0,-1.991 4.749,-1.962 4.749,-4.651 0,-1.555 -1.547,-3.008 -3.7,-3.008 -0.842,0 -1.685,0.13 -2.472,0.435 l -0.4,1.817 c 0.814,-0.741 1.947,-1.206 3.024,-1.206 0.787,0 1.974,0.494 1.974,1.511 0,2.268 -4.75,1.861 -4.75,4.942 0,1.832 1.782,2.529 3.466,2.529 0.69,0 1.394,-0.102 2.057,-0.32 L 0,0 Z" /></g><g
             transform="translate(223.9163,58.076)"
             id="g126"><path
               inkscape:connector-curvature="0"
               id="path128"
               style="fill:#006bb6;fill-opacity:1;fill-rule:nonzero;stroke:none"
               d="m 0,0 c 0,0.669 0.097,1.73 -0.608,2.006 l 0,0.043 2.624,0 0,-0.043 C 1.325,1.73 1.408,0.654 1.408,0 l 0,-5.48 c 0,-0.654 -0.083,-1.715 0.608,-1.991 l 0,-0.043 -2.624,0 0,0.043 C 0.083,-7.209 0,-6.134 0,-5.48 L 0,0 Z" /></g><g
             transform="translate(232.2247,58.3959)"
             id="g130"><path
               inkscape:connector-curvature="0"
               id="path132"
               style="fill:#006bb6;fill-opacity:1;fill-rule:nonzero;stroke:none"
               d="m 0,0 c -0.538,0.581 -1.394,0.916 -2.167,0.916 -0.787,0 -1.781,-0.32 -1.781,-1.323 0,-1.991 4.749,-1.962 4.749,-4.651 0,-1.555 -1.547,-3.008 -3.7,-3.008 -0.842,0 -1.685,0.13 -2.472,0.435 l -0.4,1.817 c 0.815,-0.741 1.947,-1.206 3.024,-1.206 0.787,0 1.974,0.494 1.974,1.511 0,2.268 -4.749,1.861 -4.749,4.942 0,1.832 1.781,2.529 3.465,2.529 0.69,0 1.394,-0.102 2.057,-0.32 L 0,0 Z" /></g><g
             transform="translate(237.2199,52.4515)"
             id="g134"><path
               inkscape:connector-curvature="0"
               id="path136"
               style="fill:#006bb6;fill-opacity:1;fill-rule:nonzero;stroke:none"
               d="m 0,0 c 0,-0.829 -0.014,-1.396 0.718,-1.846 l 0,-0.043 -2.734,0 0,0.043 c 0.691,0.276 0.608,1.337 0.608,1.991 l 0,6.482 -1.215,0 c -0.594,0 -1.215,-0.159 -1.643,-0.581 l -0.042,0 0.484,1.73 0.041,0 c 0.166,-0.073 0.345,-0.073 0.524,-0.102 l 0.346,0 5.15,0 c 0.234,0 0.455,0.014 0.635,0.102 l 0.041,0 -0.442,-1.73 -0.041,0 C 2.251,6.555 1.698,6.627 1.242,6.627 L 0,6.627 0,0 Z" /></g><g
             transform="translate(244.482,58.8902)"
             id="g138"><path
               inkscape:connector-curvature="0"
               id="path140"
               style="fill:#006bb6;fill-opacity:1;fill-rule:nonzero;stroke:none"
               d="m 0,0 -1.367,-3.663 2.72,0 L 0,0 Z m -1.726,-4.738 -0.718,-2.05 c -0.29,-0.814 -0.387,-1.235 0.276,-1.497 l 0,-0.043 -2.54,0 0,0.043 c 0.8,0.422 1.036,1.236 1.339,2.064 l 2.306,6.061 c 0.193,0.523 0.455,1.133 -0.207,1.352 l 0,0.043 2.181,0 2.872,-7.456 C 4.1,-7.049 4.349,-7.863 5.136,-8.285 l 0,-0.043 -2.831,0 0,0.043 c 0.677,0.32 0.567,0.48 0.194,1.497 l -0.746,2.05 -3.479,0 z" /></g><g
             transform="translate(251.7577,52.4515)"
             id="g142"><path
               inkscape:connector-curvature="0"
               id="path144"
               style="fill:#006bb6;fill-opacity:1;fill-rule:nonzero;stroke:none"
               d="m 0,0 c 0,-0.814 -0.014,-1.396 0.718,-1.846 l 0,-0.043 -2.443,0 0,0.043 c 0.731,0.45 0.731,1.032 0.731,1.846 l 0,5.799 c 0,0.814 0,1.395 -0.718,1.831 l 0,0.044 2.016,0 0,-0.015 C 0.359,7.485 0.414,7.412 0.511,7.296 l 0.193,-0.291 5.053,-6.714 0,5.508 c 0,0.814 0.014,1.395 -0.717,1.831 l 0,0.044 2.429,0 0,-0.044 C 6.751,7.194 6.751,6.613 6.751,5.799 l 0,-8.154 c -0.98,0.349 -1.408,0.829 -2.015,1.657 L 0,5.624 0,0 Z" /></g><g
             transform="translate(267.0832,58.3229)"
             id="g146"><path
               inkscape:connector-curvature="0"
               id="path148"
               style="fill:#006bb6;fill-opacity:1;fill-rule:nonzero;stroke:none"
               d="m 0,0 c -0.759,0.509 -1.643,0.829 -2.555,0.829 -1.905,0 -3.23,-1.468 -3.23,-3.576 0,-2.136 1.38,-4.04 3.507,-4.04 1.036,0 2.071,0.392 2.941,0.916 l 0.041,0 L 0,-7.558 c -0.649,-0.319 -1.367,-0.435 -2.085,-0.435 -3.258,0 -5.274,1.918 -5.274,5.028 0,3.009 2.016,5 4.846,5 0.842,0 1.698,-0.16 2.513,-0.363 L 0,0 Z" /></g><g
             transform="translate(270.2705,51.7828)"
             id="g150"><path
               inkscape:connector-curvature="0"
               id="path152"
               style="fill:#006bb6;fill-opacity:1;fill-rule:nonzero;stroke:none"
               d="m 0,0 1.754,-0.174 c 0.911,-0.088 1.863,0.217 2.554,0.857 l 0.041,0 -0.621,-1.904 -5.757,0 0,0.044 c 0.704,0.261 0.621,1.337 0.621,1.991 l 0,5.479 c 0,0.669 0.083,1.73 -0.621,2.006 l 0,0.043 4.417,0 c 0.235,0 0.47,-0.029 0.65,0.073 l 0.041,0 0,-1.7 -0.041,0 C 2.61,7.238 2.043,7.296 1.408,7.296 0.925,7.296 0.442,7.281 0,7.195 l 0,-2.704 1.643,0 c 0.221,0 0.442,0 0.608,0.087 l 0.041,0 0,-1.54 -0.041,0 C 2.03,3.459 1.45,3.445 1.021,3.445 L 0,3.445 0,0 Z" /></g><g
             transform="translate(202.7962,46.2982)"
             id="g154"><path
               inkscape:connector-curvature="0"
               id="path156"
               style="fill:#006bb6;fill-opacity:1;fill-rule:nonzero;stroke:none"
               d="m 0,0 c 1.889,0 3.328,-0.916 3.328,-2.543 0,-1.672 -1.555,-2.733 -3.197,-2.733 -0.364,0 -0.727,0.044 -1.061,0.203 1.25,0.073 2.602,0.844 2.602,2.239 0,1.279 -0.902,1.788 -2.064,1.788 -0.349,0 -0.683,-0.029 -1.018,-0.087 l 0,-6.555 c 0,-0.815 -0.014,-1.396 0.756,-1.832 l 0,-0.044 -2.892,0 0,0.044 c 0.741,0.262 0.654,1.337 0.654,1.991 l 0,5.48 c 0,0.654 0.087,1.715 -0.64,2.006 L -3.532,0 0,0 Z" /></g><g
             transform="translate(214.8268,37.6941)"
             id="g158"><path
               inkscape:connector-curvature="0"
               id="path160"
               style="fill:#006bb6;fill-opacity:1;fill-rule:nonzero;stroke:none"
               d="m 0,0 c -0.64,-0.843 -1.831,-1.192 -2.849,-1.192 -0.959,0 -1.977,0.305 -2.631,1.018 -0.77,0.843 -0.741,1.817 -0.741,2.863 l 0,3.881 c 0,0.653 0.102,1.714 -0.64,1.991 l 0,0.043 2.762,0 0,-0.043 C -4.826,8.284 -4.738,7.223 -4.738,6.57 l 0,-3.881 c 0,-1.934 0.814,-2.834 2.31,-2.834 0.815,0 1.643,0.334 2.122,1.017 C 0.014,1.308 0,1.671 0,2.195 L 0,6.57 c 0,0.653 0.087,1.714 -0.64,1.991 l 0,0.043 2.762,0 0.014,-0.043 C 1.395,8.284 1.482,7.223 1.482,6.555 l 0,-5.48 c 0,-0.654 -0.087,-1.715 0.654,-1.991 l 0,-0.043 L 0,-0.959 0,0 Z" /></g><g
             transform="translate(222.121,42.4468)"
             id="g162"><path
               inkscape:connector-curvature="0"
               id="path164"
               style="fill:#006bb6;fill-opacity:1;fill-rule:nonzero;stroke:none"
               d="m 0,0 c 0.945,0 2.296,0.32 2.296,1.511 0,1.003 -0.929,1.527 -1.802,1.44 L -0.48,2.848 -0.48,0 0,0 Z m 0.785,-4.665 c 1.192,-0.117 2.398,0.436 2.398,1.816 0,1.41 -1.366,2.021 -2.645,1.948 l -1.018,-0.059 0,-3.589 1.265,-0.116 z m -2.747,6.482 c 0,0.653 0.102,1.715 -0.64,1.991 l 0,0.043 3.445,0 c 1.919,0 3.038,-0.813 3.038,-2.107 0,-0.974 -0.625,-1.526 -1.453,-1.889 1.308,-0.276 2.369,-1.149 2.369,-2.573 0,-1.119 -0.771,-2.079 -1.745,-2.543 -1.017,-0.495 -2.165,-0.451 -3.255,-0.451 l -2.399,0 0,0.044 c 0.727,0.276 0.64,1.337 0.64,2.005 l 0,5.48 z" /></g><g
             transform="translate(233.571,37.7814)"
             id="g166"><path
               inkscape:connector-curvature="0"
               id="path168"
               style="fill:#006bb6;fill-opacity:1;fill-rule:nonzero;stroke:none"
               d="m 0,0 c 0.989,-0.058 1.846,0.276 2.573,0.887 l 0.043,0 -0.756,-1.934 -5.973,0 0,0.044 c 0.741,0.262 0.654,1.337 0.654,1.991 l 0,5.48 c 0,0.668 0.087,1.729 -0.654,2.005 l 0,0.044 2.776,0 0,-0.044 C -2.078,8.197 -1.977,7.122 -1.977,6.468 l 0,-6.337 L 0,0 Z" /></g><g
             transform="translate(239.0177,44.2491)"
             id="g170"><path
               inkscape:connector-curvature="0"
               id="path172"
               style="fill:#006bb6;fill-opacity:1;fill-rule:nonzero;stroke:none"
               d="m 0,0 c 0,0.668 0.101,1.729 -0.64,2.006 l 0,0.043 2.762,0 0,-0.043 C 1.395,1.729 1.482,0.654 1.482,0 l 0,-5.48 c 0,-0.654 -0.087,-1.715 0.64,-1.991 l 0,-0.043 -2.762,0 0,0.043 C 0.087,-7.209 0,-6.134 0,-5.48 L 0,0 Z" /></g><g
             transform="translate(252.3128,41.3129)"
             id="g174"><path
               inkscape:connector-curvature="0"
               id="path176"
               style="fill:#006bb6;fill-opacity:1;fill-rule:nonzero;stroke:none"
               d="m 0,0 c 0,2.021 -1.25,4.172 -3.692,4.172 -2.325,0 -3.648,-1.802 -3.648,-3.707 0,-2.369 1.526,-4.229 3.721,-4.229 C -1.439,-3.764 0,-2.136 0,0 M 3.822,-6.453 C 3.328,-6.918 2.66,-7.194 1.976,-7.194 c -1.438,0 -3.517,1.642 -4.635,2.529 -0.394,-0.088 -0.786,-0.146 -1.193,-0.146 -2.834,0 -5.145,2.137 -5.145,5.015 0,2.979 2.529,5.014 5.392,5.014 2.863,0 5.262,-1.962 5.262,-4.927 0,-1.715 -0.989,-3.561 -2.588,-4.302 1.207,-1.09 2.849,-2.442 4.55,-2.442 l 0.203,0 z" /></g><g
             transform="translate(263.0642,37.6941)"
             id="g178"><path
               inkscape:connector-curvature="0"
               id="path180"
               style="fill:#006bb6;fill-opacity:1;fill-rule:nonzero;stroke:none"
               d="m 0,0 c -0.64,-0.843 -1.831,-1.192 -2.849,-1.192 -0.959,0 -1.977,0.305 -2.631,1.018 -0.77,0.843 -0.741,1.817 -0.741,2.863 l 0,3.881 c 0,0.653 0.102,1.714 -0.639,1.991 l 0,0.043 2.761,0 0,-0.043 C -4.826,8.284 -4.739,7.223 -4.739,6.57 l 0,-3.881 c 0,-1.934 0.814,-2.834 2.312,-2.834 0.814,0 1.642,0.334 2.121,1.017 C 0.015,1.308 0,1.671 0,2.195 L 0,6.57 c 0,0.653 0.087,1.714 -0.64,1.991 l 0,0.043 2.762,0 0.014,-0.043 C 1.395,8.284 1.482,7.223 1.482,6.555 l 0,-5.48 c 0,-0.654 -0.087,-1.715 0.654,-1.991 l 0,-0.043 L 0,-0.959 0,0 Z" /></g><g
             transform="translate(269.937,37.9558)"
             id="g182"><path
               inkscape:connector-curvature="0"
               id="path184"
               style="fill:#006bb6;fill-opacity:1;fill-rule:nonzero;stroke:none"
               d="m 0,0 1.846,-0.174 c 0.959,-0.088 1.962,0.217 2.689,0.857 l 0.043,0 -0.654,-1.904 -6.06,0 0,0.044 c 0.741,0.261 0.653,1.337 0.653,1.991 l 0,5.479 c 0,0.669 0.088,1.73 -0.653,2.006 l 0,0.043 4.65,0 c 0.248,0 0.495,-0.029 0.683,0.073 l 0.044,0 0,-1.7 -0.044,0 C 2.747,7.238 2.151,7.296 1.483,7.296 0.974,7.296 0.465,7.281 0,7.194 l 0,-2.703 1.73,0 c 0.233,0 0.465,0 0.639,0.087 l 0.044,0 0,-1.54 -0.044,0 C 2.137,3.459 1.526,3.445 1.076,3.445 L 0,3.445 0,0 Z" /></g><g
             transform="translate(289.823,60.5297)"
             id="g186"><path
               inkscape:connector-curvature="0"
               id="path188"
               style="fill:#006bb6;fill-opacity:1;fill-rule:nonzero;stroke:none"
               d="M 0,0 C -0.552,0 -0.999,0.383 -0.999,0.857 -0.999,1.33 -0.552,1.713 0,1.713 0.552,1.713 1,1.33 1,0.857 1,0.383 0.552,0 0,0 m 8.09,1.474 c 3.647,-0.178 6.558,-3.612 6.558,-7.834 0,-4.335 -3.067,-7.85 -6.851,-7.85 -3.784,0 -6.851,3.515 -6.851,7.85 0,4.239 2.935,7.685 6.602,7.836 -8.068,5.628 -17.036,0.583 -17.64,-9.299 0.302,-13.928 14.432,-16.351 17.864,-22.406 3.835,6.257 17.157,8.983 17.864,22.204 C 25.132,3.672 14.048,6.201 8.09,1.474" /></g><g
             transform="translate(297.8973,61.9919)"
             id="g190"><path
               inkscape:connector-curvature="0"
               id="path192"
               style="fill:#006bb6;fill-opacity:1;fill-rule:nonzero;stroke:none"
               d="M 0,0 C 0.005,0.004 0.011,0.007 0.016,0.011 -0.082,0.016 -0.178,0.029 -0.278,0.029 -0.361,0.029 -0.443,0.017 -0.526,0.014 -0.519,0.009 -0.512,0.005 -0.505,0 L 0,0 Z" /></g><g
             transform="translate(293.1541,68.6528)"
             id="g194"><path
               inkscape:connector-curvature="0"
               id="path196"
               style="fill:#006bb6;fill-opacity:1;fill-rule:nonzero;stroke:none"
               d="m 0,0 c -3.432,-5.349 -2.624,-9.487 2.22,-15.341 -1.211,-1.514 -1.514,-2.523 -1.413,-3.936 1.615,0.202 2.221,1.312 2.422,3.028 1.717,-1.514 4.34,-2.12 6.056,-2.019 -0.368,3.043 -2.693,5.335 -6.459,3.634 -2.927,3.936 -5.955,7.973 -2.321,14.23 L 0,0 Z" /></g></g></g></g></g></svg>
